<svg width="24" height="24" viewBox="0 0 24 24" fill="none" xmlns="http://www.w3.org/2000/svg">
<path fill-rule="evenodd" clip-rule="evenodd" d="M7 6V4C7 4 7 3 7.5 2.5C8 2 9 2 9 2H15C15 2 16 2 16.5 2.5C17 3 17 4 17 4V6H20.1C20.6523 6 21.1 6.44772 21.1 7C21.1 7.55228 20.6523 8 20.1 8H19V20C19 20 19 21 18.5 21.5C18 22 16.9455 22 16.9455 22H7C7 22 6 22 5.5 21.5C5.00001 21 5 20.0001 5 20C5 20 5 20 5 20V8H4C3.44772 8 3 7.55229 3 7C3 6.44772 3.44772 6 4 6H7ZM17 8V20H7V8H17ZM9 4H15V6H9V4Z" fill="#2D2D2D"/>
<path d="M10 18C10.5523 18 11 17.5523 11 17V11C11 10.4477 10.5523 10 10 10C9.44772 10 9 10.4477 9 11V17C9 17.5523 9.44772 18 10 18Z" fill="#2D2D2D"/>
<path d="M14 10C14.5523 10 15 10.4477 15 11V17C15 17.5523 14.5523 18 14 18C13.4477 18 13 17.5523 13 17V11C13 10.4477 13.4477 10 14 10Z" fill="#2D2D2D"/>
</svg>
