<svg width="16" height="16" viewBox="0 0 16 16" fill="none" xmlns="http://www.w3.org/2000/svg">
<g clip-path="url(#clip0_265_16028)">
<path fill-rule="evenodd" clip-rule="evenodd" d="M7.99996 1.99991C4.68625 1.99991 1.99996 4.68621 1.99996 7.99991C1.99996 11.3136 4.68625 13.9999 7.99996 13.9999C11.3137 13.9999 14 11.3136 14 7.99991C14 4.68621 11.3137 1.99991 7.99996 1.99991ZM0.666626 7.99991C0.666626 3.94983 3.94987 0.66658 7.99996 0.66658C12.05 0.66658 15.3333 3.94983 15.3333 7.99991C15.3333 12.05 12.05 15.3332 7.99996 15.3332C3.94987 15.3332 0.666626 12.05 0.666626 7.99991Z" fill="#1369B0"/>
<path fill-rule="evenodd" clip-rule="evenodd" d="M7.99996 7.33325C8.36815 7.33325 8.66663 7.63172 8.66663 7.99991V10.6666C8.66663 11.0348 8.36815 11.3332 7.99996 11.3332C7.63177 11.3332 7.33329 11.0348 7.33329 10.6666V7.99991C7.33329 7.63172 7.63177 7.33325 7.99996 7.33325Z" fill="#1369B0"/>
<path fill-rule="evenodd" clip-rule="evenodd" d="M7.33329 5.33325C7.33329 4.96506 7.63177 4.66658 7.99996 4.66658H8.00663C8.37482 4.66658 8.67329 4.96506 8.67329 5.33325C8.67329 5.70144 8.37482 5.99991 8.00663 5.99991H7.99996C7.63177 5.99991 7.33329 5.70144 7.33329 5.33325Z" fill="#1369B0"/>
</g>
<defs>
<clipPath id="clip0_265_16028">
<rect width="16" height="16" fill="white"/>
</clipPath>
</defs>
</svg>
